<svg width="250" height="250" viewBox="0 0 250 250" fill="none" xmlns="http://www.w3.org/2000/svg">
<path d="M117.63 28H122.63V18H117.63V28ZM147.385 182.082C144.624 182.082 142.385 184.32 142.385 187.082C142.385 189.843 144.624 192.082 147.385 192.082V182.082ZM179.633 212.164L175.038 214.133L175.038 214.133L179.633 212.164ZM191.219 231.065C193.742 232.187 196.697 231.05 197.818 228.527C198.94 226.004 197.803 223.049 195.28 221.927L191.219 231.065ZM117.63 18C83.9407 18 51 42.6031 51 81.0466H61C61 49.2609 88.2558 28 117.63 28V18ZM51 81.0466C51 119.832 86.7456 141.943 117.63 141.943V131.943C90.2544 131.943 61 112.49 61 81.0466H51ZM117.63 141.943C144.439 141.943 159.7 144.73 168.117 148.736C172.21 150.684 174.44 152.808 175.696 154.823C176.95 156.835 177.5 159.167 177.5 162H187.5C187.5 157.833 186.675 153.533 184.183 149.534C181.693 145.539 177.806 142.273 172.415 139.707C161.865 134.685 144.69 131.943 117.63 131.943V141.943ZM177.5 162C177.5 165.485 176.86 170.265 173.321 174.194C169.851 178.046 162.675 182.082 147.385 182.082V192.082C164.344 192.082 174.725 187.577 180.751 180.887C186.707 174.276 187.5 166.515 187.5 162H177.5ZM147.385 192.082C163.258 192.082 167.153 194.51 168.782 196.64C169.766 197.927 170.422 199.692 171.317 202.84C172.159 205.801 173.161 209.753 175.038 214.133L184.229 210.194C182.667 206.548 181.859 203.352 180.936 200.105C180.066 197.046 179.002 193.543 176.726 190.566C171.833 184.168 163.044 182.082 147.385 182.082V192.082ZM175.038 214.133C177.541 219.975 183.323 227.556 191.219 231.065L195.28 221.927C190.276 219.703 186.026 214.385 184.229 210.194L175.038 214.133Z" fill="#334E58"/>
<circle cx="113.33" cy="81.0466" r="35.8312" fill="#334E58"/>
</svg>
